<?xml version="1.0" encoding="UTF-8"?>
<svg version="1.1" xmlns="http://www.w3.org/2000/svg" width="369" height="369">
<path d="M0 0 C4.83398073 -0.02514475 9.66792153 -0.04306491 14.50195312 -0.05493164 C16.13867864 -0.05989045 17.7753999 -0.06665953 19.41210938 -0.07543945 C30.32244066 -0.13240371 41.11840481 0.1679332 52 1 C52 2.32 52 3.64 52 5 C52.66 5 53.32 5 54 5 C54.36351562 5.92039062 54.72703125 6.84078125 55.1015625 7.7890625 C58.14502248 15.46365238 61.28855677 23.08063663 64.5625 30.66015625 C67.20089215 36.79011627 69.75501156 42.95585145 72.28125 49.1328125 C74.91597566 55.56144191 74.91597566 55.56144191 77.9375 61.8125 C80.81513647 67.39372235 82.96403853 73.31021501 85.26513672 79.14550781 C88.42887304 87.12947495 91.87609674 94.94956478 95.5078125 102.73046875 C97.80555083 107.76504201 99.91310301 112.8750981 102 118 C105.67254488 110.84060071 109.23411329 103.74536688 112.10546875 96.21875 C112.95789273 94.10444075 113.93202342 92.13724931 115 90.125 C117.20985914 85.86993789 118.5752525 81.40807871 119.97265625 76.83203125 C121.02163742 73.94035312 122.4062367 71.62212985 124 69 C124.79118065 67.07894835 125.53838664 65.13942538 126.25 63.1875 C129.71870339 53.96556952 133.44637282 44.71294005 138.0625 36 C139.37945258 33.36505651 140.53543024 30.72481354 141.57421875 27.96875 C141.98885376 26.87046875 141.98885376 26.87046875 142.41186523 25.75 C143.62079317 22.50459369 144.81518497 19.25429196 146 16 C146.66 16 147.32 16 148 16 C148.1546875 14.7625 148.1546875 14.7625 148.3125 13.5 C149.09807467 9.50071076 150.1747109 5.65931164 152 2 C164.81455752 -4.40727876 190.03078493 -0.69641143 204 1 C207.96114099 4.96114099 206.12227023 21.95298083 206.13552856 27.32722473 C206.13249222 29.11841988 206.13249222 29.11841988 206.12939453 30.94580078 C206.13202301 32.90284691 206.13202301 32.90284691 206.13470459 34.89942932 C206.13920446 38.43083993 206.13751979 41.96222082 206.1343255 45.49363184 C206.13175968 49.22735316 206.13415132 52.96107226 206.13571167 56.6947937 C206.13752255 62.96678108 206.13515701 69.23875662 206.13037109 75.51074219 C206.12494487 82.7037025 206.12668358 89.89663439 206.1321975 97.08959401 C206.13677681 103.31862569 206.13735548 109.54764895 206.13475883 115.77668178 C206.13322043 119.473228 206.13293342 123.169761 206.13629532 126.8663063 C206.14897801 142.93617529 205.98516516 158.95521962 205 175 C200.11592293 176.74661893 195.91215741 177.26773972 190.7578125 177.1953125 C189.98944061 177.1924826 189.22106873 177.18965271 188.42941284 177.18673706 C185.99444479 177.17561311 183.55985538 177.1505236 181.125 177.125 C179.46615118 177.11496011 177.80729654 177.10583603 176.1484375 177.09765625 C172.09881421 177.07569937 168.04947113 177.04122406 164 177 C162.85375128 174.70750256 162.8634942 173.39889052 162.84178162 170.84921265 C162.82709839 169.54510185 162.82709839 169.54510185 162.81211853 168.21464539 C162.80636307 167.25870987 162.8006076 166.30277435 162.79467773 165.31787109 C162.78477814 164.31296127 162.77487854 163.30805145 162.76467896 162.27268982 C162.73300418 158.93962996 162.7082829 155.60655583 162.68359375 152.2734375 C162.66302939 149.96700665 162.64203306 147.66057962 162.62062073 145.35415649 C162.56534661 139.27473025 162.5159609 133.19526969 162.46777344 127.11578369 C162.41759736 120.91569962 162.361891 114.71566556 162.30664062 108.515625 C162.19899375 96.34379269 162.09756331 84.17191702 162 72 C161.037564 74.06831379 160.07698614 76.13749228 159.1171875 78.20703125 C158.58206543 79.35921143 158.04694336 80.5113916 157.49560547 81.69848633 C156.29794329 84.34229724 155.17239078 86.98203312 154.125 89.6875 C152.26333266 94.47019351 150.16783192 99.13371567 148.0625 103.8125 C145.26172294 110.0487603 142.67838879 116.31596322 140.27734375 122.71875 C137.00046186 131.13642824 133.22578042 139.36470988 129.4375 147.5625 C127.75095739 151.23516844 126.20347766 154.94193216 124.72192383 158.70043945 C123.95439874 160.64469301 123.1718757 162.58234268 122.38671875 164.51953125 C121.57298822 166.56188027 120.78989236 168.61780588 120.08203125 170.69921875 C119.25 172.875 119.25 172.875 117 176 C113.65097873 177.08189798 110.495337 177.07228171 107 177 C106.24074219 177.02320313 105.48148437 177.04640625 104.69921875 177.0703125 C103.22960655 177.10685703 101.75830141 177.10010199 100.2890625 177.05078125 C97.95522963 176.95607973 97.95522963 176.95607973 95.4609375 177.23046875 C92.51922606 177.32378588 90.70045052 177.20515974 88 176 C83.63526802 170.38235246 81.28011411 163.80876689 78.84155273 157.19799805 C77.19223843 152.89025896 75.3309414 148.67041898 73.5 144.4375 C73.10941406 143.53064453 72.71882813 142.62378906 72.31640625 141.68945312 C70.91984522 138.44726851 69.5209849 135.20608005 68.12109375 131.96533203 C67.03513393 129.44347685 65.96768319 126.91872562 64.953125 124.3671875 C63.96392994 121.91041616 62.87114647 119.52425344 61.75 117.125 C59.13058997 111.40081866 56.79744427 105.57686967 54.48046875 99.7265625 C50.63300831 89.9489714 50.63300831 89.9489714 46.1875 80.4375 C45 78 45 78 45 75 C44.01 75 43.02 75 42 75 C42.00222061 76.23361771 42.00444122 77.46723541 42.00672913 78.73823547 C42.02697668 90.34833859 42.04197995 101.95843813 42.05181217 113.56855488 C42.05703688 119.53781684 42.0641271 125.50706458 42.07543945 131.47631836 C42.08628291 137.23399687 42.09227995 142.99166167 42.09487724 148.74934959 C42.09672885 150.94903975 42.10034443 153.14872913 42.10573006 155.34841347 C42.11295978 158.42280337 42.11399012 161.49713621 42.11352539 164.5715332 C42.11712067 165.48647049 42.12071594 166.40140778 42.12442017 167.34407043 C42.1230455 168.18119568 42.12167084 169.01832092 42.12025452 169.8808136 C42.12117631 170.60810826 42.1220981 171.33540293 42.12304783 172.08473682 C42 174 42 174 41 177 C38.14296518 177.23808624 35.80044393 177.42918681 33 177 C30.48781636 174.68614665 29.30103675 172.7740945 28.0703125 169.609375 C27.00495247 167.01207392 25.7436103 164.81041314 24.25 162.4375 C22.06545694 158.861361 20.08834897 155.26548184 18.25 151.5 C14.89694839 144.66119025 11.18643954 138.03706078 7.46484375 131.39453125 C7.06418701 130.67563721 6.66353027 129.95674316 6.25073242 129.21606445 C5.38361214 127.67968913 4.49973161 126.15269938 3.6027832 124.63354492 C0.34114643 119.0267884 -1.65884761 114.56326662 0 108 C2.4375 106.0625 2.4375 106.0625 4.08984375 105.22265625 C15.52799244 97.90130545 21.05128335 82.84216727 23.87084961 70.21728516 C26.55059142 57.02448221 25.07923998 42.52032654 20 30 C19.34 29.34 18.68 28.68 18 28 C17.28304249 26.27278417 16.56714684 24.54509222 15.86328125 22.8125 C14.63224279 20.22787626 12.81811925 18.19428185 11 16 C11 15.34 11 14.68 11 14 C10.13375 13.62875 10.13375 13.62875 9.25 13.25 C6.6665125 11.81472917 5.02214217 10.14852606 3 8 C2.236875 7.34 1.47375 6.68 0.6875 6 C0.130625 5.34 -0.42625 4.68 -1 4 C-0.60546875 1.875 -0.60546875 1.875 0 0 Z " fill="#292138" transform="translate(144,96)"/>
<path d="M0 0 C0.80411316 0.00639496 1.60822632 0.01278992 2.43670654 0.01937866 C5.08321659 0.04207538 7.72955786 0.07272842 10.37597656 0.10424805 C12.22674359 0.12350075 14.07751269 0.14255587 15.92828369 0.16142273 C19.80510586 0.20234863 23.68185123 0.2475531 27.55859375 0.29541016 C32.50547608 0.3558716 37.45238295 0.40286971 42.39944077 0.44624043 C46.22243655 0.48176165 50.04529654 0.52597788 53.86817169 0.57259178 C55.69082714 0.59351366 57.51351956 0.61145167 59.33623505 0.6262455 C77.18690869 0.7782258 94.77300158 2.51292686 108.76660156 15.0534668 C108.76660156 15.7134668 108.76660156 16.3734668 108.76660156 17.0534668 C109.3428125 17.27776367 109.91902344 17.50206055 110.51269531 17.7331543 C117.25287542 21.68147471 121.82640795 30.64280249 123.76660156 38.0534668 C123.96898437 38.72893555 124.17136719 39.4044043 124.37988281 40.1003418 C128.14620986 54.96067982 127.25349524 73.14123748 119.48144531 86.4050293 C115.91612952 91.91137123 112.3357303 97.41648477 106.76660156 101.0534668 C106.10660156 101.0534668 105.44660156 101.0534668 104.76660156 101.0534668 C104.76660156 101.7134668 104.76660156 102.3734668 104.76660156 103.0534668 C101.79660156 104.7034668 98.82660156 106.3534668 95.76660156 108.0534668 C96.8710776 111.91913292 98.24770648 114.93980111 100.55957031 118.22143555 C103.80694671 123.15030135 106.50401384 128.49535428 109.11425781 133.78393555 C111.34864955 138.20517877 113.74567759 142.5306395 116.14160156 146.8659668 C116.61082031 147.71739258 117.08003906 148.56881836 117.56347656 149.44604492 C118.96239425 151.98303239 120.36402296 154.5185017 121.76660156 157.0534668 C122.22349365 157.88040039 122.68038574 158.70733398 123.15112305 159.55932617 C123.58755127 160.34758789 124.02397949 161.13584961 124.47363281 161.94799805 C125.05334839 162.99564331 125.05334839 162.99564331 125.64477539 164.06445312 C126.39992589 165.40334563 127.17234097 166.73263027 127.96069336 168.05224609 C130.76660156 172.75938526 130.76660156 172.75938526 130.76660156 176.0534668 C127.93253019 176.86733212 125.492158 177.15695448 122.54882812 177.07519531 C121.72827942 177.05509903 120.90773071 177.03500275 120.06231689 177.01429749 C119.18613708 176.98726242 118.30995728 176.96022736 117.40722656 176.93237305 C116.50284851 176.90876205 115.59847046 176.88515106 114.66668701 176.86082458 C111.78315868 176.78435961 108.89991059 176.70026144 106.01660156 176.6159668 C104.05958394 176.56272893 102.10255272 176.50998864 100.14550781 176.45776367 C95.35236219 176.32876769 90.55945369 176.19292627 85.76660156 176.0534668 C67.9754426 142.46894654 67.9754426 142.46894654 61.82910156 130.8034668 C61.25699951 129.71908325 61.25699951 129.71908325 60.67333984 128.61279297 C59.69947984 126.76227937 58.73269807 124.9080453 57.76660156 123.0534668 C57.1878125 121.94487305 56.60902344 120.8362793 56.01269531 119.6940918 C54.76660156 117.0534668 54.76660156 117.0534668 54.76660156 115.0534668 C53.84041016 115.16174805 53.84041016 115.16174805 52.89550781 115.2722168 C43.89658276 116.25840036 35.84893572 116.06261504 26.76660156 115.0534668 C26.76660156 135.1834668 26.76660156 155.3134668 26.76660156 176.0534668 C17.45508368 176.67423466 8.32165379 177.23500202 -0.98339844 177.2409668 C-2.03527344 177.25321289 -3.08714844 177.26545898 -4.17089844 177.27807617 C-5.67910156 177.28097656 -5.67910156 177.28097656 -7.21777344 177.28393555 C-8.11206055 177.28804443 -9.00634766 177.29215332 -9.92773438 177.29638672 C-12.23339844 177.0534668 -12.23339844 177.0534668 -15.23339844 175.0534668 C-15.60533524 172.16359138 -15.60533524 172.16359138 -15.60089111 168.38601685 C-15.60415995 167.69292636 -15.60742879 166.99983587 -15.61079669 166.28574264 C-15.61810845 163.9517504 -15.60389116 161.61837821 -15.58984375 159.28442383 C-15.5906342 157.61576226 -15.59273016 155.94710086 -15.59603882 154.27844238 C-15.60118587 149.73702749 -15.58761055 145.19583807 -15.57051182 140.65445948 C-15.55550561 135.90773718 -15.55665051 131.16101817 -15.55584717 126.41427612 C-15.55215081 118.43963764 -15.53716683 110.46508503 -15.51464844 102.49047852 C-15.48579559 92.25167826 -15.47542754 82.01294729 -15.47096634 71.77411079 C-15.46698599 62.97904916 -15.45448211 54.18400261 -15.44061947 45.38895178 C-15.43651988 42.55882266 -15.43359448 39.72869408 -15.43082428 36.89856339 C-15.4259297 32.45154008 -15.41572355 28.00455872 -15.40138626 23.55755615 C-15.39686439 21.92410537 -15.39402486 20.29064894 -15.39297867 18.65719223 C-15.39123191 16.42971406 -15.38334614 14.20234066 -15.37384033 11.97488403 C-15.37086567 10.72753038 -15.36789101 9.48017673 -15.3648262 8.19502449 C-15.25670123 5.61048053 -15.00189723 3.50562253 -14.23339844 1.0534668 C-9.4575161 0.09910545 -4.84984962 -0.06355097 0 0 Z M26.76660156 34.0534668 C26.76660156 50.2234668 26.76660156 66.3934668 26.76660156 83.0534668 C35.39816406 83.1462793 35.39816406 83.1462793 44.20410156 83.2409668 C46.00161865 83.26827881 47.79913574 83.29559082 49.65112305 83.32373047 C59.81085365 83.41429032 68.74558778 83.10907967 77.19628906 76.64331055 C82.11501854 71.66340284 84.26427931 65.44414199 85.26660156 58.6784668 C85.15132584 51.87719917 81.48347447 45.55742851 77.76660156 40.0534668 C71.10729827 34.31307929 63.66246131 33.89972407 55.18457031 33.95581055 C54.4622522 33.95681763 53.73993408 33.95782471 52.99572754 33.9588623 C50.31516924 33.96406727 47.63463369 33.97802843 44.95410156 33.9909668 C35.95128906 34.0219043 35.95128906 34.0219043 26.76660156 34.0534668 Z " fill="#796C85" transform="translate(35.2333984375,95.946533203125)"/>
<path d="M0 0 C0.33 0 0.66 0 1 0 C1 18.48 1 36.96 1 56 C1.66 56 2.32 56 3 56 C2.67 59.96 2.34 63.92 2 68 C1.34 67.67 0.68 67.34 0 67 C0 44.89 0 22.78 0 0 Z " fill="#B4A9CA" transform="translate(20,193)"/>
<path d="M0 0 C1.63569946 0.00290039 1.63569946 0.00290039 3.30444336 0.00585938 C11.50953573 0.04960367 19.6408226 0.3809123 27.8125 1.125 C27.8125 1.455 27.8125 1.785 27.8125 2.125 C22.5325 2.125 17.2525 2.125 11.8125 2.125 C11.4825 2.785 11.1525 3.445 10.8125 4.125 C8.2705411 4.17934116 5.72976318 4.2188339 3.1875 4.25 C2.47464844 4.26675781 1.76179688 4.28351563 1.02734375 4.30078125 C-3.50164363 4.34233159 -6.8776374 3.64055608 -11.1875 2.125 C-14.15966792 1.88619698 -14.15966792 1.88619698 -17.0625 2 C-18.02929688 2.01804687 -18.99609375 2.03609375 -19.9921875 2.0546875 C-20.71664063 2.07789062 -21.44109375 2.10109375 -22.1875 2.125 C-22.1875 1.795 -22.1875 1.465 -22.1875 1.125 C-14.77272271 0.22143658 -7.46556116 -0.03212228 0 0 Z M-12.1875 3.125 C-10.1875 4.125 -10.1875 4.125 -10.1875 4.125 Z " fill="#362D3D" transform="translate(320.1875,95.875)"/>
<path d="M0 0 C3.77081636 -0.0294985 7.54160231 -0.04696364 11.3125 -0.0625 C12.36501953 -0.07087891 13.41753906 -0.07925781 14.50195312 -0.08789062 C21.39311686 -0.10909421 28.15030513 0.24328318 35 1 C35 1.33 35 1.66 35 2 C25.43 2.33 15.86 2.66 6 3 C6 4.98 6 6.96 6 9 C2.34683329 7.75023244 1.21934164 7.32901247 -1 4 C-0.625 1.8125 -0.625 1.8125 0 0 Z " fill="#37323F" transform="translate(144,96)"/>
<path d="M0 0 C0.33 0.99 0.66 1.98 1 3 C0.67 3.66 0.34 4.32 0 5 C0.66 5 1.32 5 2 5 C-1 11 -1 11 -2.1875 13.125 C-2.455625 13.74375 -2.72375 14.3625 -3 15 C-2.67 15.66 -2.34 16.32 -2 17 C-2.33 17.66 -2.66 18.32 -3 19 C-3.66 19 -4.32 19 -5 19 C-5 19.99 -5 20.98 -5 22 C-6.32 21.67 -7.64 21.34 -9 21 C-6.03 14.07 -3.06 7.14 0 0 Z " fill="#403A48" transform="translate(275,148)"/>
<path d="M0 0 C0.66 0 1.32 0 2 0 C3.15536808 8.25744816 2.93486478 16.31313332 2.5625 24.625 C2.51029297 25.91535156 2.45808594 27.20570313 2.40429688 28.53515625 C2.2757492 31.69041739 2.14084196 34.8452678 2 38 C1.67 38 1.34 38 1 38 C0.96241577 37.14619751 0.96241577 37.14619751 0.92407227 36.27514648 C0.80706106 33.66242687 0.6848172 31.04997638 0.5625 28.4375 C0.52318359 27.54224609 0.48386719 26.64699219 0.44335938 25.72460938 C0.25402042 21.74849127 0.02863023 17.84379833 -0.59765625 13.91015625 C-0.73042969 12.94980469 -0.86320312 11.98945313 -1 11 C-0.67 10.67 -0.34 10.34 0 10 C0.04443347 8.00049364 0.03920815 5.99961564 0 4 C0 2.68 0 1.36 0 0 Z " fill="#191224" transform="translate(346,195)"/>
<path d="M0 0 C1.5625 1.0625 1.5625 1.0625 3 3 C2.7756359 7.11334176 2.12787433 10.45354279 0 14 C-0.66 14 -1.32 14 -2 14 C-3.125 10.6875 -3.125 10.6875 -4 7 C-3.34 6.01 -2.68 5.02 -2 4 C-1.34 4 -0.68 4 0 4 C0 2.68 0 1.36 0 0 Z " fill="#211B30" transform="translate(274,228)"/>
<path d="M0 0 C0.66 0.33 1.32 0.66 2 1 C2.02490464 5.96215458 2.04295606 10.92427195 2.05493164 15.88647461 C2.05992943 17.57105138 2.06672989 19.25562388 2.07543945 20.94018555 C2.08770622 23.37549906 2.09327398 25.81075474 2.09765625 28.24609375 C2.10281754 28.98709824 2.10797882 29.72810272 2.11329651 30.49156189 C2.11384595 35.72962823 1.64951866 40.80160321 1 46 C0.67 46 0.34 46 0 46 C-1.31608669 36.4266879 -0.89378343 27.00015229 -0.5625 17.375 C-0.50916829 15.68621667 -0.45642904 13.99741453 -0.40429688 12.30859375 C-0.27636215 8.20548025 -0.14040764 4.10270484 0 0 Z " fill="#7C7B89" transform="translate(348,157)"/>
<path d="M0 0 C0.66 0 1.32 0 2 0 C2 7.26 2 14.52 2 22 C1.67 22 1.34 22 1 22 C0.637111 18.52168452 0.28615172 15.04226909 -0.0625 11.5625 C-0.16626953 10.56927734 -0.27003906 9.57605469 -0.37695312 8.55273438 C-0.47041016 7.60849609 -0.56386719 6.66425781 -0.66015625 5.69140625 C-0.74918213 4.81685791 -0.83820801 3.94230957 -0.92993164 3.04125977 C-0.9530542 2.36764404 -0.97617676 1.69402832 -1 1 C-0.67 0.67 -0.34 0.34 0 0 Z " fill="#6B6970" transform="translate(184,195)"/>
<path d="M0 0 C4.95 0 9.9 0 15 0 C15 3.63 15 7.26 15 11 C14.67 11 14.34 11 14 11 C13.5978125 9.329375 13.5978125 9.329375 13.1875 7.625 C12.34190981 3.78159049 12.34190981 3.78159049 9 2 C6.72087062 1.54605448 6.72087062 1.54605448 4.3125 1.375 C3.50425781 1.30023438 2.69601562 1.22546875 1.86328125 1.1484375 C1.24839844 1.09945312 0.63351562 1.05046875 0 1 C0 0.67 0 0.34 0 0 Z " fill="#1D1627" transform="translate(333,98)"/>
<path d="M0 0 C0.33 0.66 0.66 1.32 1 2 C4.3 2 7.6 2 11 2 C11 2.33 11 2.66 11 3 C3.48751716 3.94450945 -3.48751716 3.94450945 -11 3 C-11.33 3.66 -11.66 4.32 -12 5 C-12 4.34 -12 3.68 -12 3 C-14.97 3 -17.94 3 -21 3 C-21 2.67 -21 2.34 -21 2 C-14.07 2 -7.14 2 0 2 C0 1.34 0 0.68 0 0 Z " fill="#1C1626" transform="translate(179,96)"/>
<path d="M0 0 C1.15471676 4.23080648 1.41818721 7.60903435 1 12 C-1.5 14 -1.5 14 -4 15 C-4.59720137 9.17728663 -2.528243 5.0790596 0 0 Z " fill="#514C5A" transform="translate(289,115)"/>
<path d="M0 0 C0.33 0 0.66 0 1 0 C1 3.3 1 6.6 1 10 C1.66 10 2.32 10 3 10 C2.67 13.96 2.34 17.92 2 22 C1.34 21.67 0.68 21.34 0 21 C0 14.07 0 7.14 0 0 Z " fill="#A69CAA" transform="translate(20,239)"/>
<path d="M0 0 C1.03159626 3.09478879 0.97482862 4.52631393 0.5625 7.6875 C0.46066406 8.49574219 0.35882813 9.30398437 0.25390625 10.13671875 C0.17011719 10.75160156 0.08632813 11.36648437 0 12 C-1.32 12.33 -2.64 12.66 -4 13 C-3.67 13.99 -3.34 14.98 -3 16 C-4.98 16.99 -4.98 16.99 -7 18 C-6.20875876 15.93733676 -5.41698909 13.87487621 -4.625 11.8125 C-4.18414062 10.66394531 -3.74328125 9.51539063 -3.2890625 8.33203125 C-2.21147857 5.54664006 -1.1163557 2.77002279 0 0 Z " fill="#615D6C" transform="translate(264,173)"/>
<path d="M0 0 C0.66 0.33 1.32 0.66 2 1 C0.68 4.3 -0.64 7.6 -2 11 C-2.66 11 -3.32 11 -4 11 C-5 8 -5 8 -3.6875 4.9375 C-2 2 -2 2 0 0 Z " fill="#454053" transform="translate(270,245)"/>
<path d="M0 0 C0.66 0.33 1.32 0.66 2 1 C0.37660195 2.70884005 -1.29319053 4.37446717 -3 6 C-3.66 6 -4.32 6 -5 6 C-5 6.66 -5 7.32 -5 8 C-6.32 8.33 -7.64 8.66 -9 9 C-8.34 7.35 -7.68 5.7 -7 4 C-6.01 4 -5.02 4 -4 4 C-4 3.34 -4 2.68 -4 2 C-2.125 0.9375 -2.125 0.9375 0 0 Z " fill="#928C99" transform="translate(145,191)"/>
<path d="M0 0 C0.66 0.33 1.32 0.66 2 1 C1.67 1.33 1.34 1.66 1 2 C0.69476038 6.65088715 0.69476038 6.65088715 2 11 C2.99 11.33 3.98 11.66 5 12 C4.01 13.32 3.02 14.64 2 16 C-1.70208498 11.37239378 -1.54582216 6.66815318 -1 1 C-0.67 0.67 -0.34 0.34 0 0 Z " fill="#807D89" transform="translate(145,203)"/>
<path d="M0 0 C0.99 0 1.98 0 3 0 C3.99 2.31 4.98 4.62 6 7 C3.03 6.505 3.03 6.505 0 6 C-0.33 6.66 -0.66 7.32 -1 8 C-1 5.16032769 -0.59732819 2.76264289 0 0 Z " fill="#1B1726" transform="translate(185,164)"/>
<path d="M0 0 C2.87977887 1.43988944 3.54708125 3.50134238 5.0625 6.3125 C5.58972656 7.27800781 6.11695313 8.24351562 6.66015625 9.23828125 C7.77926558 11.54501681 8.51890769 13.49950786 9 16 C8.34 15.67 7.68 15.34 7 15 C7 14.34 7 13.68 7 13 C6.34 13 5.68 13 5 13 C3.11304374 8.71146306 1.41807378 4.47238653 0 0 Z " fill="#A299A8" transform="translate(135,215)"/>
<path d="M0 0 C1.98 0.66 3.96 1.32 6 2 C5.34 3.32 4.68 4.64 4 6 C1 6 1 6 -1 5 C-0.67 3.35 -0.34 1.7 0 0 Z " fill="#433D50" transform="translate(256,191)"/>
<path d="M0 0 C2.7229177 3.17673731 4.88150746 5.93275441 6 10 C5.625 12.8125 5.625 12.8125 5 15 C4.67 15 4.34 15 4 15 C3.67 12.36 3.34 9.72 3 7 C2.01 6.67 1.02 6.34 0 6 C0 4.02 0 2.04 0 0 Z " fill="#504A62" transform="translate(218,152)"/>
<path d="M0 0 C2 1 2 1 3.1875 3.3125 C4.03624754 6.11989571 3.99928333 7.301935 3 10 C1.68 9.01 0.36 8.02 -1 7 C-0.67 4.69 -0.34 2.38 0 0 Z " fill="#484351" transform="translate(209,130)"/>
<path d="M0 0 C2 2 2 2 3 5 C3.66 4.34 4.32 3.68 5 3 C5 4.65 5 6.3 5 8 C2.69 7.67 0.38 7.34 -2 7 C-1.34 4.69 -0.68 2.38 0 0 Z " fill="#514D5C" transform="translate(243,209)"/>
<path d="M0 0 C1.32 0.33 2.64 0.66 4 1 C2.84414715 4.91211733 1.64465038 7.8745041 -1 11 C-2.0257259 6.58937864 -2.03684712 4.07369424 0 0 Z " fill="#64626E" transform="translate(281,215)"/>
<path d="M0 0 C0.33 0 0.66 0 1 0 C1.29310345 7.62068966 1.29310345 7.62068966 -1 11 C-2.625 12.75 -2.625 12.75 -4 14 C-4.66 13.67 -5.32 13.34 -6 13 C-5.65066406 12.39671875 -5.30132812 11.7934375 -4.94140625 11.171875 C-4.25884766 9.97304687 -4.25884766 9.97304687 -3.5625 8.75 C-3.11003906 7.96109375 -2.65757813 7.1721875 -2.19140625 6.359375 C-1.10688398 4.21166532 -0.46851284 2.34794939 0 0 Z " fill="#928996" transform="translate(119,158)"/>
<path d="M0 0 C0.33 0 0.66 0 1 0 C1.125 6.625 1.125 6.625 0 10 C1.32 10.33 2.64 10.66 4 11 C4 11.66 4 12.32 4 13 C1.525 12.01 1.525 12.01 -1 11 C-1.33 11.99 -1.66 12.98 -2 14 C-1.43393721 9.30976546 -0.81462495 4.65499974 0 0 Z " fill="#797582" transform="translate(169,160)"/>
<path d="M0 0 C1.27351308 2.54702616 0.80191925 3.4282945 0.0625 6.125 C-0.13214844 6.84945312 -0.32679688 7.57390625 -0.52734375 8.3203125 C-0.76130859 9.15175781 -0.76130859 9.15175781 -1 10 C-1.268125 9.443125 -1.53625 8.88625 -1.8125 8.3125 C-3.10122647 5.80287477 -4.52926478 3.40665764 -6 1 C-4.02 0.67 -2.04 0.34 0 0 Z " fill="#5F5569" transform="translate(164,114)"/>
<path d="M0 0 C0.99 0 1.98 0 3 0 C3.28875 0.763125 3.5775 1.52625 3.875 2.3125 C4.96269013 5.15029308 4.96269013 5.15029308 7 8 C6.67 8.99 6.34 9.98 6 11 C2.90407165 7.4912812 1.25805377 4.50802601 0 0 Z " fill="#4C4852" transform="translate(171,262)"/>
<path d="M0 0 C0.66 0 1.32 0 2 0 C2 2.64 2 5.28 2 8 C0.02 8.99 0.02 8.99 -2 10 C-1.34 6.7 -0.68 3.4 0 0 Z " fill="#211A2C" transform="translate(265,173)"/>
<path d="M0 0 C0.66 0.66 1.32 1.32 2 2 C1.67 2.66 1.34 3.32 1 4 C1.66 4.33 2.32 4.66 3 5 C2.34 6.65 1.68 8.3 1 10 C0.34 9.67 -0.32 9.34 -1 9 C-0.67 6.03 -0.34 3.06 0 0 Z " fill="#3A3748" transform="translate(299,171)"/>
<path d="M0 0 C0.99 1.32 1.98 2.64 3 4 C1 7 1 7 -1.125 7.6875 C-1.74375 7.790625 -2.3625 7.89375 -3 8 C-1.125 1.125 -1.125 1.125 0 0 Z " fill="#514D5C" transform="translate(281,135)"/>
<path d="M0 0 C0.99 0.33 1.98 0.66 3 1 C1.35 2.98 -0.3 4.96 -2 7 C-2.6875 5.1875 -2.6875 5.1875 -3 3 C-1.5625 1.25 -1.5625 1.25 0 0 Z " fill="#8E8795" transform="translate(150,184)"/>
<path d="M0 0 C1.32 0.33 2.64 0.66 4 1 C3.67 2.98 3.34 4.96 3 7 C2.34 7 1.68 7 1 7 C0.67 4.69 0.34 2.38 0 0 Z " fill="#1D1929" transform="translate(217,234)"/>
<path d="M0 0 C0.33 0.99 0.66 1.98 1 3 C0.67 3.66 0.34 4.32 0 5 C0.66 5 1.32 5 2 5 C1 7 1 7 -3 9 C-2.01 6.03 -1.02 3.06 0 0 Z " fill="#706C77" transform="translate(275,148)"/>
<path d="M0 0 C0.66 0.33 1.32 0.66 2 1 C2 1.99 2 2.98 2 4 C-0.31 4 -2.62 4 -5 4 C-4.34 3.67 -3.68 3.34 -3 3 C-3 2.34 -3 1.68 -3 1 C-2.01 0.67 -1.02 0.34 0 0 Z " fill="#1D1629" transform="translate(259,267)"/>
<path d="M0 0 C0.99 0 1.98 0 3 0 C2.01 2.97 1.02 5.94 0 9 C-1.53445094 5.93109813 -0.54984289 3.29905734 0 0 Z " fill="#686672" transform="translate(274,233)"/>
<path d="M0 0 C0.66 0.33 1.32 0.66 2 1 C1.67 2.32 1.34 3.64 1 5 C1.99 4.67 2.98 4.34 4 4 C4 4.66 4 5.32 4 6 C3.34 6 2.68 6 2 6 C1.67 6.99 1.34 7.98 1 9 C0.63877119 7.68942607 0.28619689 6.37646376 -0.0625 5.0625 C-0.35833984 3.96615234 -0.35833984 3.96615234 -0.66015625 2.84765625 C-0.77230469 2.23792969 -0.88445312 1.62820312 -1 1 C-0.67 0.67 -0.34 0.34 0 0 Z " fill="#585468" transform="translate(206,208)"/>
<path d="M0 0 C1.98 0 3.96 0 6 0 C6 1.98 6 3.96 6 6 C5.34 5.67 4.68 5.34 4 5 C4 4.34 4 3.68 4 3 C2.68 2.34 1.36 1.68 0 1 C0 0.67 0 0.34 0 0 Z " fill="#5D5A6A" transform="translate(151,107)"/>
<path d="M0 0 C2.31 0.33 4.62 0.66 7 1 C7 1.66 7 2.32 7 3 C5.02 3 3.04 3 1 3 C0.67 2.01 0.34 1.02 0 0 Z " fill="#9C8CA0" transform="translate(114,98)"/>
<path d="M0 0 C1.98 0 3.96 0 6 0 C6 0.33 6 0.66 6 1 C4.35 1 2.7 1 1 1 C1.33 1.99 1.66 2.98 2 4 C0.68 4.33 -0.64 4.66 -2 5 C-2 4.01 -2 3.02 -2 2 C-1.34 2 -0.68 2 0 2 C0 1.34 0 0.68 0 0 Z " fill="#A69CAC" transform="translate(105,97)"/>
</svg>
